<svg width="142" height="100" viewBox="0 0 142 100" fill="none" xmlns="http://www.w3.org/2000/svg">
<path d="M18.7532 98.1615C14.2271 98.1615 10.4636 95.6957 8.45201 91.3806C7.868 90.1315 7.42997 88.7364 7.10552 87.0979C4.46128 85.0214 2.9526 81.8419 2.9526 78.3216C2.9526 75.434 4.21795 72.6113 6.5053 70.3402C6.84597 64.7272 8.67917 59.4388 11.7452 55.3021C9.5714 53.1607 8.33844 50.2731 8.33844 47.272C8.33844 45.5848 8.58178 44.0275 9.05223 42.6161C3.94218 39.5663 0.924805 33.6777 0.924805 26.7345C0.924805 15.1517 14.2434 5.75892 22.9548 5.75892C28.3082 5.75892 31.3255 7.88408 32.9802 9.94432C34.9431 8.56542 37.2954 7.81919 39.7288 7.81919C41.6917 7.81919 43.5734 8.28964 45.2606 9.18187C45.7635 8.25719 46.3637 7.42985 47.0612 6.69985C49.0566 4.62338 51.782 3.4878 54.7345 3.4878C57.4436 3.4878 59.9256 4.33136 61.9696 5.92115C66.1712 1.78445 71.1839 1.13553 73.8769 1.13553C80.1062 1.13553 85.6219 4.18537 88.8015 9.32786C91.4944 8.54919 93.7817 8.37075 95.2742 8.37075C97.1073 8.37075 98.7944 8.58161 100.254 9.00339C103.677 3.77979 108.982 0.908447 115.26 0.908447C121.165 0.908447 132.196 5.92114 132.196 18.023C132.196 20.0833 131.742 23.1331 129.682 26.2964C132.796 30.0114 134.5 34.7807 134.5 39.8259C134.5 43.703 132.212 47.3369 128.79 49.17C131.693 51.4249 135.327 55.7238 135.327 63.0726C135.327 64.9706 135.035 66.7875 134.484 68.4746C138.491 72.0435 140.697 77.1536 140.697 82.9774C140.697 88.3146 136.479 94.0735 129.666 94.0735C127.086 94.0735 124.766 93.1813 122.739 91.4131C120.549 93.3922 117.548 94.5115 114.352 94.5115C112.502 94.5115 108.009 93.9438 104.894 88.931C102.574 89.8882 100.043 90.3748 97.3506 90.3748C94.6577 90.3748 91.8512 89.6935 89.3854 88.3957C88.1363 93.4733 83.886 97.0259 78.8084 97.0259C73.1955 97.0259 68.9776 93.8951 67.2256 88.4443C66.9823 87.6981 66.8039 86.8546 66.3334 83.3019C62.0994 88.9148 56.0809 89.8233 52.658 89.8233C50.9871 89.8233 49.3486 89.6124 47.7913 89.2068C46.5259 94.8035 41.3347 97.8047 36.8087 97.8047C33.3209 97.8047 30.0277 96.1662 27.9026 93.4409C25.8424 96.4258 22.5168 98.1615 18.737 98.1615H18.7532Z" fill="#2A3A4D"/>
<path d="M115.276 1.83314C120.857 1.83314 131.304 6.58626 131.304 18.023C131.304 20.067 130.833 23.1818 128.546 26.3614C131.71 29.8816 133.608 34.6348 133.608 39.8097C133.608 43.5571 131.125 47.5315 126.956 48.9591C131.028 51.5222 134.451 56.1618 134.451 63.0563C134.451 65.0841 134.11 66.9984 133.445 68.7504C137.452 72.0598 139.804 77.0725 139.804 82.9612C139.804 87.8603 135.943 93.1488 129.698 93.1488C126.681 93.1488 124.458 91.8511 122.755 90.1315C120.467 92.5811 117.288 93.5869 114.384 93.5869C112.551 93.5869 108.171 92.9866 105.299 87.7468C102.947 88.8499 100.271 89.4339 97.3829 89.4339C94.4954 89.4339 91.4293 88.6228 88.7526 86.9357C88.0388 92.1755 83.9508 96.0851 78.8408 96.0851C73.7307 96.0851 69.7562 93.1975 68.134 88.1361C67.8582 87.2925 67.6473 86.1408 66.9498 80.6739C62.959 87.8279 56.2268 88.8661 52.6741 88.8661C50.6463 88.8661 48.7807 88.5579 47.0773 87.9901C46.3473 93.5544 41.5131 96.8475 36.8248 96.8475C33.0774 96.8475 29.7032 94.8197 27.8701 91.6888C26.1668 95.0306 22.8086 97.2045 18.7531 97.2045C14.6975 97.2045 11.1448 94.9333 9.27925 90.9588C8.69524 89.7097 8.25723 88.2659 7.949 86.5625C5.41831 84.697 3.87717 81.7445 3.87717 78.3054C3.87717 75.2718 5.36962 72.6438 7.41363 70.7295C7.70564 64.6786 9.81455 59.1792 12.9941 55.1723C10.4797 53.0309 9.26301 50.0947 9.26301 47.2395C9.26301 45.2442 9.60369 43.5733 10.1877 42.1619C5.53188 39.6961 1.84937 34.4401 1.84937 26.6858C1.84937 15.6059 14.6164 6.61871 22.9547 6.61871C27.9674 6.61871 31.0821 8.58162 32.7854 11.1934C34.797 9.5063 37.2629 8.69517 39.7287 8.69517C41.8214 8.69517 43.8978 9.29542 45.6498 10.4472C46.1527 9.29542 46.8178 8.24096 47.7263 7.30007C49.5432 5.41827 52.0252 4.36382 54.7344 4.36382C57.4435 4.36382 60.0391 5.33715 62.0344 7.13783C66.0414 2.75779 70.9892 2.01156 73.8767 2.01156C79.441 2.01156 85.1675 4.65581 88.3795 10.3823C90.8291 9.58741 93.2462 9.26296 95.274 9.26296C97.4478 9.26296 99.2161 9.57118 100.66 10.0741C103.839 4.81803 108.917 1.80066 115.276 1.80066M116.412 46.834C116.412 46.834 116.428 46.834 116.444 46.834ZM68.3611 54.7181C68.3611 54.7181 68.3611 54.7018 68.3611 54.6856C68.3611 54.6856 68.3611 54.7018 68.3611 54.7181ZM115.276 0C108.885 0 103.466 2.8227 99.8649 7.96519C98.4698 7.64074 96.9449 7.4623 95.274 7.4623C93.3111 7.4623 91.2347 7.73808 89.2069 8.27342C85.8164 3.21204 80.1872 0.227087 73.8767 0.227087C71.1514 0.227087 66.1873 0.843535 61.8884 4.7369C59.8119 3.30934 57.3624 2.56311 54.7181 2.56311C51.5061 2.56311 48.5374 3.81227 46.3798 6.05096C45.812 6.63497 45.3091 7.28382 44.8711 7.98138C43.2651 7.26759 41.5131 6.89451 39.6962 6.89451C37.3602 6.89451 35.0891 7.54341 33.1262 8.72764C31.2444 6.71607 28.1134 4.83428 22.9385 4.83428C13.9188 4.83428 0 14.2433 0 26.7345C0 33.7425 2.95253 39.7123 7.96524 43.0217C7.60835 44.3357 7.41363 45.7633 7.41363 47.272C7.41363 50.2731 8.53297 53.1445 10.5445 55.3831C7.72185 59.4712 5.98609 64.5488 5.61298 69.9346C3.29318 72.3355 2.0278 75.288 2.0278 78.3216C2.0278 82.0041 3.569 85.3459 6.26191 87.6008C6.58636 89.1581 7.02429 90.5208 7.6083 91.7537C9.78209 96.3933 13.8378 99.07 18.7369 99.07C22.4194 99.07 25.6963 97.5451 27.935 94.8846C30.2223 97.2855 33.4182 98.7131 36.7924 98.7131C41.4482 98.7131 46.7367 95.7769 48.4401 90.2937C49.8028 90.5857 51.2141 90.7317 52.6578 90.7317C55.9185 90.7317 61.3854 89.953 65.7006 85.4594C65.9764 87.3088 66.1386 88.0712 66.3495 88.7201C68.1989 94.4953 72.8709 97.9506 78.8083 97.9506C83.9346 97.9506 88.2984 94.6088 89.9531 89.7097C92.2729 90.7479 94.7873 91.2995 97.3342 91.2995C99.8811 91.2995 102.282 90.8939 104.521 90.0666C107.846 94.8846 112.421 95.4524 114.335 95.4524C117.466 95.4524 120.451 94.4466 122.739 92.6297C124.783 94.2033 127.102 95.0144 129.665 95.0144C137.047 95.0144 141.605 88.7688 141.605 82.9936C141.605 77.2185 139.464 71.93 135.538 68.215C136.008 66.5928 136.252 64.8732 136.252 63.0888C136.252 56.178 133.202 51.8467 130.363 49.2998C133.445 47.1746 135.424 43.6219 135.424 39.8421C135.424 34.8294 133.802 30.06 130.817 26.2478C132.699 23.1006 133.121 20.0995 133.121 18.0393C133.121 5.30471 121.489 0.0162382 115.26 0.0162382L115.276 0Z" fill="white"/>
<path d="M24.9987 55.4156C19.7427 55.4156 14.0486 62.7319 14.0486 72.1895C14.0486 72.8547 14.0486 73.536 14.0486 74.2011C14.0486 74.2173 14.0161 74.2822 13.9999 74.2984C12.3777 74.996 10.5608 76.6832 10.5608 78.3378C10.5608 80.1385 11.5828 81.7121 13.9999 81.9716C14.081 81.9716 14.1622 82.0528 14.1622 82.1339C14.4542 86.9519 15.4924 90.5695 18.7693 90.5695C20.4402 90.5695 22.4193 89.515 22.4193 86.5788C22.4193 85.4919 22.2572 82.7665 22.0787 79.9438C22.0787 79.8627 22.1273 79.7816 22.2084 79.7654C22.468 79.6843 22.7438 79.6032 23.0196 79.5383C25.826 78.7758 28.2594 78.4838 30.0601 77.8025C30.3197 77.7051 30.709 77.6565 30.8225 78.062C31.8283 81.7445 32.7043 85.2486 33.2559 87.4061C33.7263 89.2717 35.3648 90.245 36.8411 90.245C37.9604 90.245 40.5398 89.5799 40.5398 86.595C40.5398 85.2323 39.1933 80.1223 37.3277 73.3413C35.1052 65.2626 32.5908 55.4318 25.0312 55.4318L24.9987 55.4156ZM21.8029 71.8164C21.6893 71.8326 21.5758 71.7515 21.5758 71.638C21.657 67.4202 23.6847 63.0726 25.2096 63.0726C25.9883 63.0726 27.2212 66.171 28.5027 70.2428C28.5838 70.4862 28.5027 70.8431 28.0809 70.8917C26.6371 71.0215 24.3012 71.3135 21.7867 71.8326L21.8029 71.8164Z" fill="white"/>
<path d="M122.82 71.2973C122.544 71.2486 122.593 71.1189 122.755 71.0378C125.058 69.9184 127.751 67.6148 127.751 63.0726C127.751 55.5454 121.473 53.2094 119.088 53.2094C114.838 53.2094 110.199 57.2974 109.063 65.0192C108.982 65.5059 108.593 65.5708 108.479 65.1328C107.344 59.9903 104.002 57.7354 100.027 57.7354C99.0701 57.7354 97.5289 58.3194 96.7503 59.163C96.6854 59.2279 96.5556 59.1468 96.5556 59.0494C96.3285 56.973 94.5116 56.0645 93.2138 56.0645C92.2242 56.0645 90.6831 56.6323 89.3529 58.2545C89.2231 58.4005 88.8824 58.4817 88.8337 58.1572C88.8337 58.141 88.8337 58.1248 88.8175 58.1085C88.5417 56.0483 87.1953 54.9127 84.7944 54.9127C82.5232 54.9127 78.7272 55.3831 74.2661 55.3831C70.9567 55.3831 66.9984 55.3507 65.8304 55.3507C64.9706 55.3507 63.4944 55.5941 62.7644 56.9892C62.6346 57.2812 62.2291 57.2974 62.1155 56.9892C61.3044 54.6369 60.0066 52.7227 57.9626 52.7227C48.7808 52.7227 59.7146 73.8604 52.1387 73.8604C49.5594 73.8604 47.7263 66.8686 47.7263 61.9857C47.7263 58.871 46.7368 56.5998 43.7843 56.5998C41.3996 56.5998 38.9824 58.2708 38.9824 64.6948C38.9824 69.4804 42.0809 82.2474 52.7066 82.2474C61.8073 82.2474 63.5106 73.3089 63.5106 65.6033C63.5106 65.3113 63.4458 63.8512 63.2186 62.0992C63.1862 61.791 63.5269 61.6774 63.8351 62.0343C64.4191 62.6832 65.2951 63.1699 66.5929 63.2186C67.0958 63.2348 68.6369 63.2835 71.4109 63.3159C71.492 63.3159 71.557 63.3808 71.5732 63.4457C72.3194 69.3344 74.0877 84.8917 74.4932 86.1408C75.3854 88.8986 77.0564 89.4501 78.857 89.4501C80.9822 89.4501 82.2151 87.2763 82.2151 85.3459C82.2151 83.6912 79.9115 69.8373 79.0192 63.3808C79.0841 63.2997 79.1165 63.2672 79.1814 63.1861C81.9717 63.105 84.1292 63.0401 84.3726 63.0401C85.5081 63.0401 86.4004 63.1375 87.0493 62.3912C87.1629 62.2614 87.3737 62.3101 87.3251 62.4561C86.8384 64.0784 86.6113 65.5059 86.6113 68.1502C86.6113 77.6727 91.5105 82.7828 97.383 82.7828C103.255 82.7828 106.97 79.6194 108.366 74.1524C108.366 74.1687 108.366 74.1849 108.366 74.1687C108.447 73.7145 108.933 73.6658 108.982 74.1687C109.55 83.3668 111.659 86.9194 114.384 86.9194C115.893 86.9194 118.715 86.5464 118.715 80.6739C118.715 79.6681 118.618 77.1211 118.002 75.3691C117.937 75.1744 118.002 75.0447 118.229 75.0609C124.069 75.7747 125.334 86.4815 129.698 86.4815C132.245 86.4815 133.137 84.0805 133.137 82.9612C133.137 76.4236 128.919 72.0273 122.836 71.2811L122.82 71.2973ZM97.2532 75.2394C95.3227 75.2394 94.0249 70.1942 94.0249 68.2799C94.0249 66.3657 94.3169 64.857 94.7387 63.9648C94.7711 63.9161 94.8198 63.8837 94.8685 63.8837C96.2312 63.8837 100.709 64.1433 100.709 69.7562C100.709 72.1247 99.1836 75.2394 97.2532 75.2394ZM116.168 69.4155C115.487 69.4155 115.309 67.988 115.309 67.0795C115.309 65.295 115.925 60.0065 118.618 60.0065C119.478 60.0065 120.97 60.915 120.97 62.9103C120.97 65.2301 118.245 69.4155 116.168 69.4155Z" fill="white"/>
<path d="M67.4037 45.6497C72.4327 45.6497 72.1569 41.9348 72.1569 38.8201C72.1569 37.6521 71.8486 34.4239 71.6053 31.6336C71.5728 31.2767 71.8973 31.3092 72.0596 31.439C72.8382 32.0392 74.1198 32.4123 75.4987 32.4123C77.2507 32.4123 80.3329 31.2605 82.2796 27.6754C82.377 27.4807 82.5879 27.4807 82.6203 27.6754C82.6203 27.6916 82.6203 27.7078 82.6527 27.724C83.2529 30.3845 84.8914 31.8121 86.5461 32.5583C86.6759 32.6232 86.7084 32.7854 86.5786 32.8503C84.129 34.0994 81.7443 36.6626 81.7443 39.9557C81.7443 44.498 84.4859 48.6509 94.0571 48.6509C99.2807 48.6509 105.267 47.5315 105.98 43.4759C105.98 43.4759 105.981 43.4597 105.997 43.4435C106.029 43.2813 106.159 43.2326 106.337 43.3624C106.824 43.6706 107.376 43.8328 108.057 43.8328C109.501 43.8328 112.778 43.476 112.778 37.8306C112.778 36.403 112.924 33.7425 112.68 31.585C112.68 31.585 112.68 31.5849 112.68 31.5687C112.664 31.374 112.761 31.3416 112.94 31.3741C117.774 33.0612 118.115 42.8595 123.63 42.8595C126.08 42.8595 126.972 40.8966 126.972 39.8259C126.972 33.8723 123.209 28.6325 117.807 27.3185C117.79 27.3185 117.758 27.3023 117.709 27.286C117.304 27.1887 117.547 26.9616 117.725 26.8642C120.662 25.3231 124.669 22.4842 124.669 18.023C124.669 10.8041 117.596 8.5005 115.308 8.5005C107.392 8.5005 103.644 15.6546 103.644 25.4042C103.644 32.0392 103.726 36.7599 104.391 39.761C104.423 39.9395 104.374 40.1017 104.131 40.0044C104.131 40.0044 104.131 40.0044 104.115 40.0044C103.628 39.8097 103.109 39.6961 102.574 39.6961C99.4591 39.6961 98.4371 41.9997 93.8948 41.9997C90.6665 41.9997 90.3097 39.6475 90.3097 38.9174C90.3097 33.7101 100.562 36.6788 100.562 31.2605C100.562 28.2756 98.064 28.2432 97.1555 28.2432C96.2471 28.2432 92.7106 28.7785 91.3966 28.7785C90.0826 28.7785 89.239 27.286 89.239 26.5236C89.239 21.7542 100.319 26.1991 100.319 18.818C100.319 16.3197 97.6259 15.9628 95.3061 15.9628C92.5646 15.9628 87.7303 16.9686 84.5669 20.3591C84.4696 20.4564 84.3237 20.424 84.3237 20.278C84.3237 20.278 84.3237 20.2779 84.3237 20.2617C83.8694 11.3556 78.3538 8.72764 73.9413 8.72764C63.2345 8.72764 62.4397 23.4737 62.4397 29.2327C62.4397 38.8688 62.829 45.6497 67.4524 45.6497H67.4037ZM114.789 14.957C115.746 14.957 117.304 15.7357 117.304 18.7368C117.304 21.4622 114.286 24.6904 111.983 24.6904C111.22 24.6904 111.026 23.3926 111.026 22.5491C111.026 20.9106 111.788 14.957 114.773 14.957H114.789ZM74.2333 15.6383C75.5473 15.6383 76.8775 18.1528 76.8775 20.4402C76.8775 24.074 74.282 27.0751 71.9297 27.0751C71.3133 27.0751 70.8591 26.3127 70.8591 24.3336C70.8591 19.8886 72.2704 15.6383 74.2171 15.6383H74.2333Z" fill="white"/>
<path d="M25.907 35.0403C27.2373 35.0403 28.0159 35.819 28.0159 37.1492C28.0159 43.8166 15.9302 38.4632 15.9302 47.2882C15.9302 48.9267 17.2605 51.6683 22.6788 51.6683C29.2164 51.6683 37.0031 44.7089 37.0031 36.5977C37.0031 36.111 37.6033 35.8677 37.8467 36.3868C39.6636 39.9719 42.5512 42.6811 47.1097 42.6811C54.1177 42.6811 60.0389 39.1608 60.0389 24.9824C60.0389 20.9106 60.7203 11.0799 54.7342 11.0799C46.8339 11.0799 54.8801 33.2721 48.375 33.2721C44.4816 33.2721 43.6056 25.6313 43.6056 20.1644C43.6056 17.2768 42.5187 15.4275 39.5662 15.4275C37.3113 15.4275 34.9591 17.585 34.9591 22.1273C34.9591 23.9766 35.1051 26.4587 35.5594 29.0543C35.6405 29.4923 35.0078 29.7518 34.6347 29.2976C32.8827 27.4483 30.4168 26.9129 28.2917 26.9129C23.8792 26.9129 22.0461 29.8005 19.1423 29.8005C18.0392 29.8005 17.2605 28.7785 17.2605 27.8051C17.2605 21.7055 27.8375 22.9384 27.8375 17.2444C27.8375 13.7241 25.0472 13.351 22.9546 13.351C17.6012 13.351 8.5166 20.0184 8.5166 26.7507C8.5166 33.483 12.5723 37.1492 16.4981 37.1492C20.4239 37.1492 24.593 35.0565 25.9233 35.0565L25.907 35.0403Z" fill="white"/>
</svg>
