<svg width="135" height="93" viewBox="0 0 135 93" fill="none" xmlns="http://www.w3.org/2000/svg">
<path d="M22.7199 59.5C21.2299 59.5 19.2599 63.73 19.1799 67.83C19.1799 67.94 19.2799 68.03 19.3899 68C21.8399 67.5 24.0999 67.22 25.5099 67.09C25.9199 67.05 25.9899 66.71 25.9199 66.47C24.6699 62.51 23.4699 59.5 22.7199 59.5Z" fill="#1D1D1B"/>
<path d="M68.1201 24.52C70.4101 24.52 72.9301 21.6 72.9301 18.07C72.9301 15.84 71.6301 13.4 70.3501 13.4C68.4601 13.4 67.0801 17.54 67.0801 21.86C67.0801 23.78 67.5101 24.52 68.1101 24.52H68.1201Z" fill="#1D1D1B"/>
<path d="M90.4101 60.3C90.3501 60.3 90.3101 60.33 90.2801 60.38C89.8701 61.25 89.5901 62.76 89.5901 64.57C89.5901 66.38 90.8401 71.34 92.7301 71.34C94.6201 71.34 96.0901 68.32 96.0901 66.01C96.0901 60.56 91.7401 60.31 90.4101 60.3Z" fill="#1D1D1B"/>
<path d="M113.51 56.53C110.88 56.53 110.29 61.66 110.29 63.4C110.29 64.29 110.46 65.67 111.12 65.67C113.14 65.67 115.79 61.61 115.79 59.35C115.79 57.4 114.34 56.52 113.51 56.52V56.53Z" fill="#1D1D1B"/>
<path d="M127.9 65.05C128.54 63.35 128.88 61.49 128.88 59.51C128.88 52.81 125.56 48.3 121.6 45.81C125.66 44.43 128.07 40.56 128.07 36.92C128.07 31.88 126.23 27.26 123.15 23.84C125.37 20.74 125.83 17.72 125.83 15.73C125.83 4.61 115.68 0 110.25 0C104.07 0 99.14 2.92999 96.05 8.03999C94.65 7.54999 92.93 7.25999 90.82 7.25999C88.84 7.25999 86.49 7.59 84.12 8.35C81 2.79 75.43 0.209999 70.03 0.209999C67.21 0.209999 62.4 0.939995 58.51 5.18999C56.57 3.42999 54.13 2.49 51.41 2.49C48.69 2.49 46.36 3.5 44.59 5.34C43.71 6.25 43.06 7.29 42.57 8.41C38.85 5.97 33.69 6.10999 30.07 9.14999C28.4 6.61999 25.38 4.71 20.51 4.71C12.41 4.71 0 13.45 0 24.21C0 31.75 3.59 36.86 8.11 39.25C7.55 40.62 7.21 42.24 7.21 44.19C7.21 46.95 8.39 49.82 10.84 51.89C7.74 55.77 5.7 61.13 5.42 67.01C3.44 68.87 1.98 71.42 1.98 74.37C1.98 77.72 3.48 80.59 5.94 82.4C6.24 84.06 6.67 85.46 7.24 86.68C9.05 90.54 12.4 92.76 16.44 92.76C20.48 92.76 23.64 90.65 25.3 87.4C27.08 90.45 30.35 92.42 34 92.42C38.56 92.42 43.26 89.23 43.97 83.81C45.64 84.35 47.45 84.65 49.41 84.65C52.86 84.65 59.4 83.64 63.28 76.69C63.95 82 64.16 83.12 64.43 83.94C66.01 88.85 69.8 91.66 74.84 91.66C79.88 91.66 83.79 87.86 84.47 82.76C87.07 84.4 90 85.19 92.86 85.19C95.72 85.19 98.27 84.62 100.56 83.54C103.34 88.64 107.61 89.22 109.38 89.22C112.21 89.22 115.3 88.24 117.52 85.86C119.18 87.53 121.34 88.79 124.27 88.79C130.34 88.79 134.09 83.65 134.09 78.89C134.09 73.17 131.79 68.29 127.9 65.08V65.05ZM70.02 6.68C74.31 6.68 79.67 9.23 80.11 17.89C80.11 17.89 80.11 17.9 80.11 17.91C80.11 18.05 80.26 18.09 80.35 17.99C83.44 14.7 88.12 13.72 90.79 13.72C93.04 13.72 95.66 14.08 95.66 16.5C95.66 23.67 84.89 19.35 84.89 23.99C84.89 24.74 85.71 26.19 86.99 26.19C88.27 26.19 91.7 25.66 92.59 25.66C93.48 25.66 95.91 25.69 95.91 28.59C95.91 33.85 85.94 30.97 85.94 36.03C85.94 36.74 86.29 39.02 89.43 39.02C93.85 39.02 94.84 36.79 97.86 36.79C98.38 36.79 98.89 36.9 99.36 37.08C99.36 37.08 99.37 37.08 99.38 37.08C99.61 37.16 99.67 37.01 99.63 36.84C98.99 33.92 98.9 29.34 98.9 22.89C98.9 13.42 102.54 6.46 110.23 6.46C112.45 6.46 119.33 8.69 119.33 15.71C119.33 20.04 115.44 22.81 112.58 24.3C112.41 24.39 112.17 24.61 112.56 24.71C112.6 24.72 112.63 24.73 112.65 24.74C117.91 26.02 121.57 31.1 121.57 36.89C121.57 37.92 120.69 39.84 118.32 39.84C112.96 39.84 112.62 30.33 107.93 28.68C107.77 28.64 107.66 28.68 107.69 28.87C107.69 28.87 107.69 28.87 107.69 28.89C107.93 30.98 107.79 33.57 107.79 34.95C107.79 40.43 104.6 40.78 103.2 40.78C102.55 40.78 102 40.61 101.53 40.31C101.36 40.2 101.23 40.25 101.2 40.41C101.2 40.43 101.19 40.44 101.18 40.45C100.48 44.39 94.66 45.47 89.58 45.47C80.27 45.47 77.61 41.43 77.61 37.01C77.61 33.82 79.93 31.33 82.31 30.11C82.31 30.11 82.31 30.11 82.33 30.1C82.47 30.04 82.44 29.88 82.3 29.83C80.69 29.1 79.1 27.71 78.52 25.12C78.52 25.11 78.5 25.09 78.5 25.07C78.46 24.9 78.27 24.89 78.17 25.08C76.27 28.55 73.28 29.68 71.58 29.68C70.24 29.68 68.99 29.31 68.23 28.73C68.08 28.61 67.77 28.58 67.8 28.92C68.04 31.63 68.34 34.77 68.34 35.91C68.34 38.94 68.6 42.55 63.72 42.55C59.21 42.55 58.84 35.96 58.84 26.59C58.84 20.99 59.61 6.66 70.03 6.66L70.02 6.68ZM111.39 43.72C111.39 43.72 111.37 43.72 111.36 43.72C111.36 43.72 111.36 43.72 111.37 43.71C111.37 43.71 111.37 43.71 111.38 43.71L111.39 43.72ZM64.66 51.39C64.66 51.39 64.66 51.37 64.65 51.36C64.65 51.37 64.65 51.38 64.66 51.39ZM6.47 24.19C6.47 17.65 15.3 11.17 20.51 11.17C22.55 11.17 25.26 11.54 25.26 14.95C25.26 20.48 14.98 19.3 14.98 25.22C14.98 26.16 15.74 27.16 16.81 27.16C19.63 27.16 21.42 24.35 25.71 24.35C27.77 24.35 30.16 24.87 31.87 26.68C32.23 27.11 32.84 26.86 32.76 26.44C32.32 23.92 32.18 21.51 32.18 19.71C32.18 15.29 34.47 13.19 36.66 13.19C39.53 13.19 40.59 14.98 40.59 17.8C40.59 23.11 41.44 30.54 45.22 30.54C51.54 30.54 43.72 8.96999 51.39 8.96999C57.21 8.96999 56.55 18.52 56.55 22.48C56.55 36.28 50.78 39.69 43.97 39.69C39.54 39.69 36.72 37.06 34.96 33.57C34.72 33.07 34.14 33.31 34.13 33.78C34.13 41.65 26.57 48.42 20.21 48.42C14.95 48.42 13.65 45.76 13.65 44.17C13.65 35.59 25.4 40.79 25.4 34.31C25.4 33.02 24.64 32.27 23.36 32.27C22.08 32.27 18.01 34.31 14.2 34.31C10.39 34.31 6.44 30.73 6.44 24.2L6.47 24.19ZM33.98 85.91C32.53 85.91 30.95 84.97 30.49 83.16C29.96 81.07 29.1 77.66 28.13 74.08C28.02 73.68 27.63 73.74 27.39 73.84C25.65 74.5 23.27 74.78 20.55 75.53C20.28 75.6 20.02 75.68 19.76 75.75C19.68 75.77 19.63 75.85 19.64 75.93C19.81 78.68 19.97 81.32 19.97 82.38C19.97 85.23 18.05 86.27 16.43 86.27C13.23 86.27 12.24 82.76 11.94 78.07C11.94 77.99 11.87 77.92 11.78 77.91C9.43 77.66 8.44 76.13 8.44 74.37C8.44 72.76 10.2 71.12 11.79 70.44C11.81 70.43 11.84 70.37 11.84 70.35C11.84 69.7 11.84 69.04 11.84 68.39C11.84 59.19 17.37 52.09 22.49 52.09C29.83 52.09 32.29 61.64 34.44 69.5C36.25 76.09 37.56 81.06 37.56 82.39C37.56 85.29 35.05 85.93 33.97 85.93L33.98 85.91ZM124.26 82.28C120.03 82.28 118.79 71.88 113.11 71.18C112.88 71.17 112.82 71.3 112.89 71.49C113.49 73.19 113.58 75.66 113.58 76.64C113.58 82.36 110.83 82.72 109.37 82.72C106.72 82.72 104.68 79.26 104.12 70.31C104.07 69.82 103.6 69.87 103.53 70.31C103.53 70.32 103.53 70.31 103.53 70.29C102.17 75.61 98.37 78.69 92.85 78.69C87.33 78.69 82.38 73.73 82.38 64.47C82.38 61.91 82.6 60.51 83.07 58.94C83.12 58.78 82.91 58.74 82.8 58.87C82.17 59.59 81.29 59.49 80.2 59.49C79.97 59.49 77.87 59.56 75.16 59.63C75.09 59.7 75.06 59.74 75 59.81C75.86 66.08 78.1 79.55 78.1 81.16C78.1 83.05 76.91 85.15 74.84 85.15C73.09 85.15 71.46 84.61 70.6 81.93C70.21 80.7 68.49 65.58 67.76 59.86C67.76 59.79 67.68 59.73 67.61 59.73C64.9 59.7 63.41 59.66 62.92 59.64C61.67 59.59 60.82 59.11 60.24 58.48C59.95 58.13 59.61 58.24 59.64 58.54C59.85 60.25 59.92 61.67 59.92 61.95C59.92 69.44 58.25 78.13 49.41 78.13C39.09 78.13 36.07 65.72 36.07 61.06C36.07 54.81 38.43 53.19 40.74 53.19C43.63 53.19 44.58 55.4 44.58 58.43C44.58 63.17 46.37 69.97 48.87 69.97C56.25 69.97 45.61 49.42 54.54 49.42C56.53 49.42 57.79 51.28 58.58 53.57C58.69 53.88 59.07 53.85 59.2 53.57H59.21C59.92 52.23 61.36 51.98 62.19 51.98C63.33 51.98 67.19 52.02 70.4 52.02C74.73 52.02 78.43 51.57 80.64 51.57C82.97 51.57 84.3 52.67 84.56 54.68C84.56 54.7 84.58 54.71 84.58 54.73C84.63 55.05 84.96 54.97 85.08 54.82C86.37 53.25 87.86 52.69 88.83 52.69C90.09 52.69 91.86 53.58 92.08 55.59C92.09 55.69 92.21 55.78 92.27 55.71C93.03 54.89 94.52 54.32 95.46 54.32C99.32 54.32 102.56 56.51 103.67 61.51C103.77 61.93 104.16 61.88 104.23 61.39C105.34 53.88 109.84 49.91 113.97 49.91C116.29 49.91 122.4 52.17 122.4 59.49C122.4 63.91 119.78 66.15 117.54 67.23C117.38 67.31 117.33 67.44 117.6 67.47C123.52 68.21 127.62 72.48 127.62 78.83C127.62 79.91 126.76 82.25 124.28 82.25L124.26 82.28Z" fill="#1D1D1B"/>
<path d="M107.07 22.2C109.31 22.2 112.24 19.06 112.24 16.41C112.24 13.48 110.71 12.73 109.79 12.73C106.88 12.73 106.15 18.52 106.15 20.11C106.15 20.93 106.33 22.19 107.07 22.19V22.2Z" fill="#1D1D1B"/>
</svg>
