<svg width="140" height="97" viewBox="0 0 140 97" fill="none" xmlns="http://www.w3.org/2000/svg">
<path d="M133.547 67.9092C134.222 66.1312 134.567 64.1886 134.567 62.1308C134.567 55.134 131.094 50.4257 126.961 47.8246C131.209 46.3759 133.711 42.3424 133.711 38.5395C133.711 33.2879 131.802 28.4478 128.575 24.8918C130.896 21.6486 131.373 18.5043 131.373 16.4299C131.373 4.82363 120.788 0 115.108 0C108.655 0 103.502 3.0621 100.275 8.39606C98.81 7.88571 97.0155 7.57292 94.8095 7.57292C92.7352 7.57292 90.2987 7.91864 87.8128 8.70886C84.5532 2.89747 78.7418 0.214025 73.095 0.214025C70.1482 0.214025 65.127 0.971322 61.0772 5.41629C59.0522 3.57245 56.5005 2.60116 53.6689 2.60116C50.8373 2.60116 48.4008 3.65478 46.5569 5.58093C45.635 6.53577 44.96 7.60586 44.4497 8.77472C40.5644 6.22298 35.1811 6.37115 31.3946 9.54848C29.6496 6.89796 26.5052 4.90595 21.4181 4.90595C12.9562 4.90595 0 14.0264 0 25.2705C0 33.1397 3.75353 38.4737 8.4619 40.976C7.86924 42.4083 7.52351 44.104 7.52351 46.1289C7.52351 49.0099 8.75822 52.0061 11.31 54.1627C8.08325 58.2126 5.94307 63.81 5.64674 69.9506C3.57242 71.8932 2.05786 74.5602 2.05786 77.6388C2.05786 81.1289 3.62182 84.1251 6.19002 86.0184C6.50281 87.747 6.94732 89.2121 7.53998 90.4798C9.43321 94.5132 12.9233 96.818 17.1543 96.818C21.3852 96.818 24.6778 94.612 26.4064 91.2206C28.2667 94.398 31.6745 96.4558 35.4939 96.4558C40.2516 96.4558 45.1576 93.1303 45.8984 87.4671C47.6435 88.0268 49.5202 88.3396 51.5781 88.3396C55.1835 88.3396 61.9991 87.286 66.0654 80.0259C66.7733 85.5739 66.9873 86.7427 67.2672 87.5988C68.9135 92.7187 72.881 95.6656 78.1327 95.6656C83.3843 95.6656 87.4671 91.698 88.1914 86.3805C90.9078 88.0927 93.9699 88.9158 96.9497 88.9158C99.9295 88.9158 102.596 88.3232 104.984 87.2037C107.881 92.5212 112.342 93.1303 114.203 93.1303C117.15 93.1303 120.376 92.1096 122.698 89.6237C124.426 91.3688 126.682 92.6858 129.744 92.6858C136.082 92.6858 140 87.319 140 82.3472C140 76.3712 137.596 71.2841 133.547 67.9257V67.9092ZM67.5306 53.636C67.5306 53.636 67.5306 53.6195 67.5306 53.603C67.5306 53.603 67.5306 53.6195 67.5306 53.636ZM116.31 45.635C116.31 45.635 116.294 45.635 116.277 45.635H116.31Z" fill="#1D1D1B"/>
<path d="M23.5252 54.3603C18.1912 54.3603 12.4128 61.7851 12.4128 71.3829C12.4128 72.0579 12.4128 72.7493 12.4128 73.4243C12.4128 73.4408 12.3799 73.5066 12.3634 73.5231C10.7171 74.231 8.87329 75.9431 8.87329 77.6223C8.87329 79.4497 9.91044 81.0466 12.3634 81.31C12.4457 81.31 12.528 81.3923 12.528 81.4746C12.8244 86.3641 13.878 90.0353 17.2035 90.0353C18.8992 90.0353 20.9076 88.9652 20.9076 85.9854C20.9076 84.8824 20.743 82.1167 20.5619 79.2521C20.5619 79.1698 20.6113 79.0875 20.6936 79.071C20.957 78.9887 21.2369 78.9064 21.5167 78.8406C24.3648 78.0668 26.8343 77.7705 28.6616 77.079C28.925 76.9803 29.3202 76.9309 29.4354 77.3425C30.4561 81.0795 31.3451 84.6355 31.9048 86.825C32.3822 88.7182 34.045 89.706 35.5431 89.706C36.679 89.706 39.2966 89.031 39.2966 86.0019C39.2966 84.619 37.9302 79.4332 36.037 72.5518C33.7816 64.3533 31.2298 54.3768 23.5581 54.3768L23.5252 54.3603ZM20.282 70.9878C20.1668 71.0042 20.0515 70.9219 20.0515 70.8067C20.1339 66.5264 22.1917 62.1143 23.7392 62.1143C24.5295 62.1143 25.7806 65.2587 27.0812 69.3909C27.1635 69.6378 27.0812 70 26.6532 70.0494C25.188 70.1811 22.8173 70.4774 20.2656 71.0042L20.282 70.9878Z" fill="white"/>
<path d="M122.796 70.4774C122.516 70.428 122.566 70.2963 122.73 70.214C125.068 69.0781 127.801 66.7403 127.801 62.1308C127.801 54.492 121.43 52.1214 119.01 52.1214C114.697 52.1214 109.988 56.27 108.836 64.1063C108.753 64.6002 108.358 64.6661 108.243 64.2216C107.091 59.0028 103.699 56.7145 99.666 56.7145C98.6947 56.7145 97.1307 57.3072 96.3405 58.1632C96.2746 58.2291 96.1429 58.1468 96.1429 58.048C95.9124 55.9408 94.0686 55.0188 92.7516 55.0188C91.7473 55.0188 90.1834 55.595 88.8334 57.2413C88.7017 57.3895 88.356 57.4718 88.3066 57.1425C88.3066 57.126 88.3066 57.1096 88.2902 57.0931C88.0103 55.0023 86.6439 53.8499 84.2074 53.8499C81.9026 53.8499 78.0503 54.3274 73.523 54.3274C70.1646 54.3274 66.1476 54.2945 64.9623 54.2945C64.0898 54.2945 62.5916 54.5414 61.8508 55.9572C61.7191 56.2535 61.3076 56.27 61.1923 55.9572C60.3692 53.5701 59.0521 51.6275 56.9778 51.6275C47.6599 51.6275 58.7558 73.0786 51.0677 73.0786C48.4501 73.0786 46.5898 65.9831 46.5898 61.0278C46.5898 57.8669 45.5855 55.5621 42.5893 55.5621C40.1693 55.5621 37.7163 57.2577 37.7163 63.777C37.7163 68.6336 40.8607 81.5898 51.6439 81.5898C60.8795 81.5898 62.6081 72.5189 62.6081 64.699C62.6081 64.4027 62.5423 62.921 62.3118 61.143C62.2789 60.8302 62.6246 60.715 62.9374 61.0772C63.53 61.7357 64.419 62.2296 65.7361 62.279C66.2464 62.2954 67.8104 62.3448 70.6255 62.3777C70.7078 62.3777 70.7737 62.4436 70.7902 62.5094C71.5474 68.4854 73.3419 84.2733 73.7535 85.5409C74.6589 88.3396 76.3546 88.8994 78.182 88.8994C80.3386 88.8994 81.5898 86.6933 81.5898 84.7343C81.5898 83.055 79.2521 68.9958 78.3466 62.4435C78.4124 62.3612 78.4454 62.3283 78.5112 62.246C81.3428 62.1637 83.5324 62.0978 83.7793 62.0978C84.9317 62.0978 85.8372 62.1966 86.4957 61.4393C86.6109 61.3076 86.825 61.357 86.7756 61.5052C86.2817 63.1515 86.0512 64.6002 86.0512 67.2836C86.0512 76.9473 91.023 82.1331 96.9825 82.1331C102.942 82.1331 106.712 78.9229 108.128 73.3749C108.128 73.3914 108.128 73.4078 108.128 73.3914C108.21 72.9304 108.704 72.881 108.753 73.3914C109.33 82.7258 111.47 86.3312 114.236 86.3312C115.767 86.3312 118.631 85.9525 118.631 79.9929C118.631 78.9722 118.532 76.3876 117.907 74.6096C117.841 74.4121 117.907 74.2804 118.137 74.2968C124.064 75.0212 125.348 85.8867 129.777 85.8867C132.361 85.8867 133.267 83.4501 133.267 82.3142C133.267 75.6797 128.986 71.2183 122.813 70.461L122.796 70.4774ZM96.8344 74.4779C94.8753 74.4779 93.5583 69.358 93.5583 67.4154C93.5583 65.4727 93.8546 63.9417 94.2826 63.0362C94.3156 62.9868 94.365 62.9539 94.4143 62.9539C95.7972 62.9539 100.341 63.2173 100.341 68.9135C100.341 71.3171 98.7934 74.4779 96.8344 74.4779ZM116.03 68.5677C115.339 68.5677 115.158 67.119 115.158 66.1971C115.158 64.3862 115.783 59.0193 118.516 59.0193C119.388 59.0193 120.903 59.9412 120.903 61.9662C120.903 64.3203 118.137 68.5677 116.03 68.5677Z" fill="white"/>
<path d="M66.5428 44.4332C71.6462 44.4332 71.3664 40.6632 71.3664 37.5024C71.3664 36.317 71.0536 33.0409 70.8066 30.2093C70.7737 29.8471 71.103 29.8801 71.2676 30.0118C72.0578 30.6209 73.3584 30.9996 74.7577 30.9996C76.5357 30.9996 79.6636 29.8307 81.6392 26.1924C81.738 25.9948 81.952 25.9948 81.9849 26.1924C81.9849 26.2089 81.9849 26.2253 82.0178 26.2418C82.6269 28.9417 84.2897 30.3904 85.9689 31.1477C86.1006 31.2136 86.1335 31.3782 86.0018 31.444C83.516 32.7117 81.0959 35.3128 81.0959 38.6548C81.0959 43.2644 83.8781 47.4788 93.5912 47.4788C98.8923 47.4788 104.967 46.3429 105.691 42.2272C105.691 42.2272 105.691 42.2107 105.708 42.1943C105.741 42.0296 105.872 41.9803 106.054 42.112C106.547 42.4248 107.107 42.5894 107.799 42.5894C109.264 42.5894 112.589 42.2272 112.589 36.4981C112.589 35.0494 112.737 32.3495 112.491 30.1599C112.491 30.1599 112.491 30.1599 112.491 30.1435C112.474 29.9459 112.573 29.913 112.754 29.9459C117.66 31.6581 118.006 41.6016 123.603 41.6016C126.089 41.6016 126.994 39.6096 126.994 38.523C126.994 32.4812 123.175 27.1637 117.693 25.8302C117.676 25.8302 117.643 25.8138 117.594 25.7973C117.182 25.6985 117.429 25.468 117.611 25.3692C120.59 23.8053 124.657 20.9243 124.657 16.397C124.657 9.07101 117.479 6.7333 115.158 6.7333C107.124 6.7333 103.321 13.9934 103.321 23.8876C103.321 30.6209 103.403 35.4116 104.078 38.4572C104.111 38.6383 104.062 38.8029 103.815 38.7042C103.815 38.7042 103.815 38.7042 103.798 38.7042C103.304 38.5066 102.777 38.3914 102.234 38.3914C99.0733 38.3914 98.0362 40.7291 93.4266 40.7291C90.1505 40.7291 89.7883 38.342 89.7883 37.6011C89.7883 32.3166 100.193 35.3293 100.193 29.8307C100.193 26.8015 97.6575 26.7686 96.7356 26.7686C95.8137 26.7686 92.2248 27.3118 90.8913 27.3118C89.5578 27.3118 88.7018 25.7973 88.7018 25.0235C88.7018 20.1835 99.9459 24.6943 99.9459 17.2037C99.9459 14.6684 97.213 14.3062 94.8588 14.3062C92.0766 14.3062 87.1707 15.3269 83.9604 18.7676C83.8617 18.8664 83.7135 18.8335 83.7135 18.6853C83.7135 18.6853 83.7135 18.6853 83.7135 18.6689C83.2526 9.63076 77.6552 6.9638 73.1773 6.9638C62.3118 6.9638 61.5051 21.9285 61.5051 27.7728C61.5051 37.5517 61.9002 44.4332 66.5921 44.4332H66.5428ZM114.647 13.2855C115.618 13.2855 117.199 14.0757 117.199 17.1213C117.199 19.8871 114.137 23.1632 111.799 23.1632C111.025 23.1632 110.828 21.8462 110.828 20.9901C110.828 19.3274 111.602 13.2855 114.631 13.2855H114.647ZM73.4736 13.9934C74.8071 13.9934 76.157 16.5451 76.157 18.8664C76.157 22.5541 73.523 25.5998 71.1359 25.5998C70.5103 25.5998 70.0493 24.826 70.0493 22.8175C70.0493 18.3067 71.4816 13.9934 73.4571 13.9934H73.4736Z" fill="white"/>
<path d="M24.4472 33.683C25.7972 33.683 26.5874 34.4732 26.5874 35.8232C26.5874 42.5894 14.3226 37.1567 14.3226 46.1124C14.3226 47.7752 15.6725 50.5574 21.1711 50.5574C27.8057 50.5574 35.7078 43.4949 35.7078 35.2634C35.7078 34.7695 36.317 34.5226 36.5639 35.0494C38.4077 38.6877 41.3381 41.437 45.9642 41.437C53.0761 41.437 59.0851 37.8646 59.0851 23.476C59.0851 19.3439 59.7765 9.36736 53.7017 9.36736C45.6843 9.36736 53.8499 31.8885 47.2483 31.8885C43.2972 31.8885 42.4082 24.1345 42.4082 18.5866C42.4082 15.6562 41.3052 13.7794 38.309 13.7794C36.0206 13.7794 33.6335 15.969 33.6335 20.5786C33.6335 22.4553 33.7817 24.9742 34.2426 27.6082C34.3249 28.0527 33.6829 28.3161 33.3042 27.8552C31.5262 25.9784 29.0239 25.4351 26.8673 25.4351C22.3894 25.4351 20.5291 28.3655 17.5822 28.3655C16.4627 28.3655 15.6725 27.3283 15.6725 26.3405C15.6725 20.1505 26.4063 21.4017 26.4063 15.6232C26.4063 12.0508 23.5747 11.6722 21.451 11.6722C16.0183 11.6722 6.79907 18.4384 6.79907 25.2705C6.79907 32.1026 10.9148 35.8232 14.8988 35.8232C18.8828 35.8232 23.1137 33.6994 24.4637 33.6994L24.4472 33.683Z" fill="white"/>
</svg>
